<svg width="24" height="24" viewBox="0 0 24 24" fill="none" xmlns="http://www.w3.org/2000/svg">
<path opacity="0.2" d="M6 8C6 7.46957 6.21071 6.96086 6.58579 6.58579C6.96086 6.21071 7.46957 6 8 6H9C9.53043 6 10.0391 6.21071 10.4142 6.58579C10.7893 6.96086 11 7.46957 11 8V9C11 9.53043 10.7893 10.0391 10.4142 10.4142C10.0391 10.7893 9.53043 11 9 11H8C7.46957 11 6.96086 10.7893 6.58579 10.4142C6.21071 10.0391 6 9.53043 6 9V8ZM6 15C6 14.4696 6.21071 13.9609 6.58579 13.5858C6.96086 13.2107 7.46957 13 8 13H9C9.53043 13 10.0391 13.2107 10.4142 13.5858C10.7893 13.9609 11 14.4696 11 15V16C11 16.5304 10.7893 17.0391 10.4142 17.4142C10.0391 17.7893 9.53043 18 9 18H8C7.46957 18 6.96086 17.7893 6.58579 17.4142C6.21071 17.0391 6 16.5304 6 16V15Z" fill="white"/>
<path opacity="0.5" d="M13 8C13 7.46957 13.2107 6.96086 13.5858 6.58579C13.9609 6.21071 14.4696 6 15 6H16C16.5304 6 17.0391 6.21071 17.4142 6.58579C17.7893 6.96086 18 7.46957 18 8V9C18 9.53043 17.7893 10.0391 17.4142 10.4142C17.0391 10.7893 16.5304 11 16 11H15C14.4696 11 13.9609 10.7893 13.5858 10.4142C13.2107 10.0391 13 9.53043 13 9V8Z" fill="white"/>
<path opacity="0.2" d="M13 15C13 14.4696 13.2107 13.9609 13.5858 13.5858C13.9609 13.2107 14.4696 13 15 13H16C16.5304 13 17.0391 13.2107 17.4142 13.5858C17.7893 13.9609 18 14.4696 18 15V16C18 16.5304 17.7893 17.0391 17.4142 17.4142C17.0391 17.7893 16.5304 18 16 18H15C14.4696 18 13.9609 17.7893 13.5858 17.4142C13.2107 17.0391 13 16.5304 13 16V15Z" fill="white"/>
</svg>
