<svg width="24" height="24" viewBox="0 0 24 24" fill="none" xmlns="http://www.w3.org/2000/svg">
<path opacity="0.2" d="M4 12C4 10.1435 4.7375 8.36301 6.05025 7.05025C7.36301 5.7375 9.14348 5 11 5H13C13.9193 5 14.8295 5.18106 15.6788 5.53284C16.5281 5.88463 17.2997 6.40024 17.9497 7.05025C18.5998 7.70026 19.1154 8.47194 19.4672 9.32122C19.8189 10.1705 20 11.0807 20 12C20 12.9193 19.8189 13.8295 19.4672 14.6788C19.1154 15.5281 18.5998 16.2997 17.9497 16.9497C17.2997 17.5998 16.5281 18.1154 15.6788 18.4672C14.8295 18.8189 13.9193 19 13 19H11C9.14348 19 7.36301 18.2625 6.05025 16.9497C4.7375 15.637 4 13.8565 4 12Z" fill="white"/>
<path opacity="0.5" d="M10.25 9.75L7.75 12L10.25 14.25" stroke="white" stroke-width="1.5" stroke-linecap="round" stroke-linejoin="round"/>
<path opacity="0.5" d="M13.75 9.75L16.25 12L13.75 14.25" stroke="white" stroke-width="1.5" stroke-linecap="round" stroke-linejoin="round"/>
</svg>
