<svg width="24" height="24" viewBox="0 0 24 24" fill="none" xmlns="http://www.w3.org/2000/svg">
<path opacity="0.2" fill-rule="evenodd" clip-rule="evenodd" d="M19 12C19 12.9193 18.8189 13.8295 18.4672 14.6788C18.1154 15.5281 17.5998 16.2997 16.9497 16.9497C16.2997 17.5998 15.5281 18.1154 14.6788 18.4672C13.8295 18.8189 12.9193 19 12 19C11.0807 19 10.1705 18.8189 9.32122 18.4672C8.47194 18.1154 7.70026 17.5998 7.05025 16.9497C6.40024 16.2997 5.88463 15.5281 5.53284 14.6788C5.18106 13.8295 5 12.9193 5 12C5 10.1435 5.7375 8.36301 7.05025 7.05025C8.36301 5.7375 10.1435 5 12 5C13.8565 5 15.637 5.7375 16.9497 7.05025C18.2625 8.36301 19 10.1435 19 12Z" fill="white"/>
<path opacity="0.5" d="M11.082 9.10706C10.9748 9.03872 10.8506 9.00159 10.7235 8.99982C10.5963 8.99806 10.4711 9.03173 10.362 9.09706C10.2504 9.16533 10.1584 9.26138 10.0949 9.37583C10.0315 9.49027 9.99879 9.61921 10 9.75006V14.2501C10 14.5201 10.138 14.7701 10.362 14.9031C10.586 15.0361 10.862 15.0331 11.082 14.8931L14.653 12.6431C14.7604 12.5738 14.8485 12.4785 14.9091 12.3661C14.9698 12.2537 15.0011 12.1278 15 12.0001C15.0011 11.8723 14.9698 11.7464 14.9091 11.634C14.8485 11.5216 14.7604 11.4263 14.653 11.3571L11.082 9.10706Z" fill="white"/>
</svg>
